<?xml version="1.0" encoding="utf-8"?>
<!-- Generator: Adobe Illustrator 28.0.0, SVG Export Plug-In . SVG Version: 6.00 Build 0)  -->
<svg version="1.1" id="Calque_1" xmlns="http://www.w3.org/2000/svg" xmlns:xlink="http://www.w3.org/1999/xlink" x="0px" y="0px"
	 viewBox="0 0 918 744" style="enable-background:new 0 0 918 744;" xml:space="preserve">
<style type="text/css">
	.st0{fill:#45F882;}
	.st1{fill:#0F1C23;}
	.st2{fill:#FFFFFF;fill-opacity:3.000000e-02;}
	.st3{opacity:0.3;}
	.st4{fill:#F74646;}
	.st5{fill:#6240CF;}
	.st6{fill:#FFBE18;}
	.st7{opacity:0.1;fill:#6240CF;enable-background:new    ;}
	.st8{fill:#FFFFFF;}
	.st9{opacity:0.6;fill:#FFFFFF;enable-background:new    ;}
	.st10{opacity:0.2;fill:#FFFFFF;enable-background:new    ;}
	.st11{enable-background:new    ;}
</style>
<path class="st0" d="M918,661.1H0v0.5h918V661.1z"/>
<path class="st0" d="M826,690.7h-60.8v0.5H826V690.7z"/>
<path class="st0" d="M501.6,684.9H478v0.5h23.7v-0.5H501.6z"/>
<path class="st0" d="M642,686.9h-49.8v0.5H642V686.9z"/>
<path class="st0" d="M763.4,673.6h-103v0.5h103V673.6z"/>
<path class="st0" d="M145,694.9H96.3v0.5H145V694.9z"/>
<path class="st0" d="M203.6,694.9h-42.2v0.5h42.2V694.9z"/>
<path class="st0" d="M352.2,684.7H240.5v0.5h111.6v-0.5H352.2z"/>
<path class="st1" d="M857.5,315.8c6-20.7,4.9-41.8-1.8-60.6c5.2-7.5,9.4-15.9,12-25.2c12.3-42.6-10.1-87-50.6-102.9
	c-7.7-55.9-47.4-104.7-105-121.3c-45.6-13.1-92.4-3.3-127.9,22.7c-8.9-9.3-20.3-16.5-33.5-20.3c-40-11.5-81.8,11.5-93.3,51.5
	c-1.9,6.7-2.9,13.4-2.9,20.1c-40.2,8.1-74.7,37.7-86.9,79.9c-10.9,37.9-1.2,76.8,22.4,104.8c-3,5.5-5.6,11.4-7.4,17.8
	c-13.2,45.3,13,92.7,58.4,105.7c15,4.3,30.1,4.3,44.2,0.8c16.7,23,40.9,40.8,70.3,49.3c37.9,10.9,76.6,4.1,107.5-15.4
	c13.8,32.1,25.2,80.2,0.7,127.4c88.8-8.7,152.9-93.8,139.8-171.7C828.9,366.8,849.2,344.7,857.5,315.8z"/>
<path d="M687.3,532.6c-0.5,0-1-0.2-1.3-0.5c-0.5-0.5-0.7-1.2-0.5-1.8c12.5-43.5,1.1-85.2-10.6-112.6l-6-13.9l-12.7,8.1
	c-19.2,12.2-41.3,18.6-63.9,18.6c-11.1,0-22.3-1.6-33.1-4.7c-25.8-7.4-47.7-22.8-63.5-44.5l-5.1-7l-8.4,2.1
	c-12.3,3.1-25.3,2.8-37.6-0.7c-18.7-5.4-34.1-17.7-43.5-34.7s-11.6-36.6-6.2-55.3c1.5-5.2,3.6-10.3,6.3-15.1l4.3-7.7l-5.7-6.8
	c-21.8-25.8-29.2-60.6-19.9-92.9c10.5-36.2,40-63.4,77.1-70.9l10.2-2.1l0.1-10.4c0.1-5.7,0.9-11.2,2.4-16.6
	c7.7-26.6,32.4-45.2,60-45.2c5.8,0,11.7,0.8,17.4,2.5c10.6,3.1,20.2,8.9,27.8,16.8l7.8,8.1l9.1-6.6c23-16.8,51.2-26.1,79.5-26.1
	c12.6,0,25.1,1.8,37.3,5.3c50.9,14.7,88.6,58.1,96,110.6l1,7.4l7,2.8c34.9,13.8,53.4,51.4,42.9,87.4c-2.2,7.7-5.7,14.9-10.2,21.4
	l-3.8,5.4l2.2,6.2c6.1,17.1,6.6,35.3,1.6,52.8c-7,24.1-24.1,44-47,54.6l-8.9,4.1l1.6,9.7c5.6,33.3-4.4,69.6-27.5,99.7
	c-19.2,25.1-46,43.6-75.6,52.2C687.6,532.6,687.4,532.6,687.3,532.6z M669.7,399.3c0.2,0,0.4,0,0.6,0.1c0.5,0.2,0.9,0.5,1.1,1
	l6.8,15.8c11.7,27.2,23,68.4,11.7,111.8c27.6-8.8,52.5-26.4,70.6-50c22.4-29.3,32.2-64.6,26.8-96.8l-1.9-11.1c-0.1-0.8,0.3-1.6,1-2
	l10.2-4.7c21.9-10.1,38.3-29.1,45-52.3c4.8-16.7,4.3-34.2-1.5-50.5l-2.5-7.1c-0.2-0.5-0.1-1.2,0.2-1.7l4.3-6.2
	c4.4-6.2,7.6-13.1,9.7-20.3c9.9-34.2-7.6-69.9-40.8-83l-8-3.1c-0.6-0.2-1-0.8-1.1-1.4l-1.2-8.5c-7.1-51.1-43.8-93.4-93.3-107.6
	c-11.9-3.4-24.1-5.2-36.3-5.2c-27.5,0-55,9-77.3,25.3l-10.4,7.6c-0.8,0.6-1.8,0.5-2.4-0.2l-8.9-9.3c-7.2-7.5-16.2-13-26.2-15.8
	c-5.3-1.5-10.8-2.3-16.3-2.3c-26,0-49.3,17.5-56.5,42.5c-1.5,5.1-2.2,10.3-2.3,15.7l-0.1,11.9c0,0.9-0.6,1.6-1.5,1.8L457.5,96
	c-35.7,7.2-64.2,33.4-74.2,68.3c-9,31.2-1.9,64.7,19.1,89.6l6.5,7.7c0.5,0.6,0.6,1.4,0.2,2.1l-4.9,8.8c-2.5,4.6-4.5,9.4-6,14.3
	c-5.1,17.7-3,36.3,5.9,52.5c8.9,16.1,23.6,27.8,41.3,32.9c11.7,3.4,24,3.6,35.7,0.7l9.6-2.4c0.7-0.2,1.5,0.1,1.9,0.7l5.8,8
	c15.3,21,36.5,35.9,61.5,43.1c10.5,3,21.3,4.5,32.1,4.5c21.9,0,43.3-6.3,62-18.1l14.6-9.2C669,399.4,669.4,399.3,669.7,399.3z"/>
<path class="st2" d="M558.5,227.8l-49.2-7.7l0.8-4.9c1.3-8.4,3.3-15,6-19.9s6.3-9.2,10.7-13c4.4-3.7,14-10,28.9-18.8
	c7.9-4.6,12.2-9.3,12.9-14c0.7-4.8-0.1-8.7-2.5-11.7c-2.4-3.1-6.4-5-12.1-5.9c-6.1-1-11.5,0.3-16.2,3.7c-4.6,3.4-8.3,10.1-11,20
	l-49.3-14c4.6-18.2,13.6-32,27.1-41.4c13.5-9.4,32.3-12.3,56.4-8.5c18.8,2.9,33.4,9.2,43.8,18.9c14.1,13.1,19.7,28.4,17,46.1
	c-1.1,7.3-4.3,14.1-9.4,20.3c-5.1,6.2-14.7,13.2-28.8,21.1c-9.8,5.5-16.2,10.2-19.1,14.1C561.5,215.7,559.5,221,558.5,227.8z
	 M505.6,232.9l52.7,8.2l-7.2,46.5l-52.7-8.2L505.6,232.9z"/>
<path class="st2" d="M684.1,299.7l-27.3-22.1l2.2-2.7c3.8-4.6,7.3-8,10.8-10c3.4-2,7.1-3.4,11.1-4.1s12.1-1.1,24.3-1.3
	c6.4,0,10.7-1.3,12.9-4c2.1-2.6,3-5.3,2.6-8s-2.1-5.4-5.3-7.9c-3.4-2.8-7.1-3.9-11.2-3.5c-4.1,0.4-8.7,3.2-13.8,8.3l-25.1-26
	c9.3-9.5,19.7-14.7,31.2-15.7c11.6-1,24.1,3.9,37.5,14.8c10.4,8.5,17.1,17.5,20,27c3.9,13,1.9,24.3-6,34.2c-3.3,4.1-7.6,7.1-12.9,9
	c-5.3,2-13.7,2.9-25,2.7c-7.9-0.1-13.5,0.5-16.7,1.8C690.2,293.5,687.1,296,684.1,299.7z M649.9,284.1l29.3,23.7l-20.9,25.8
	L629,309.9L649.9,284.1z"/>
<path class="st2" d="M691.7,140.8l-11.8-16.1l1.6-1.2c2.8-2,5.2-3.3,7.4-4c2.2-0.6,4.4-0.8,6.7-0.7c2.3,0.2,6.8,1.1,13.6,2.8
	c3.5,0.9,6.1,0.8,7.7-0.3c1.6-1.1,2.4-2.5,2.6-4c0.2-1.6-0.4-3.3-1.8-5.1c-1.5-2-3.4-3.2-5.7-3.5s-5.2,0.5-8.8,2.6l-10-18
	c6.5-3.9,13-5.2,19.5-4.1s12.7,5.7,18.5,13.6c4.5,6.2,6.9,12.1,7.1,17.8c0.3,7.7-2.5,13.7-8.3,17.9c-2.4,1.8-5.2,2.8-8.4,3.1
	s-7.9-0.4-14.2-2.1c-4.4-1.2-7.5-1.7-9.4-1.4C696,138.2,693.9,139.2,691.7,140.8z M675.2,127.3l12.7,17.3l-15.3,11.2l-12.7-17.3
	L675.2,127.3z"/>
<g class="st3">
	<path class="st4" d="M235.6,369.7c-15.2,0-30.5-4.1-44-12.2c-18.6-11.1-31.8-28.3-36.3-47.3c-15.1-1.1-29.1-8.5-38.4-20.5
		c-6.7-8.7-10.6-19-11.1-29.9c-4-2.7-7.5-6-10.5-9.8c-14.5-18.6-12.7-44.8,4.1-61.2c-7-29.8,4-61.1,28.3-79.9
		c19-14.8,43.2-19.9,66.6-14.3c2.7-6.2,7-11.6,12.3-15.8c8.6-6.7,19.3-9.6,30.2-8.3c10.8,1.4,20.5,6.8,27.2,15.5
		c2,2.6,3.7,5.4,5.1,8.4c22.1-3.6,44.2,5,58,22.7c12.3,15.8,16,36.5,10,55.6c2.4,2.1,4.6,4.3,6.5,6.8c15.6,20.1,12,49.2-8.1,64.8
		c-6.1,4.8-13.4,7.9-21.1,9.1c-4,15-12.6,27.9-24.9,37.4c-15.5,12-35.3,17.1-54.7,13.9c-0.2,17.8,3.9,42,23.9,59.3
		c0.4,0.3,0.6,0.9,0.5,1.4s-0.5,0.9-1,1.1C250.8,368.7,243.2,369.7,235.6,369.7z M175.8,95.3c-16.6,0-32.8,5.5-46.2,15.9
		c-23.5,18.3-34.2,48.8-27,77.8c0.1,0.5,0,1-0.4,1.4c-16.3,15.3-18.2,40.2-4.4,57.9c2.9,3.8,6.4,7,10.4,9.6c0.4,0.3,0.6,0.7,0.6,1.2
		c0.4,10.6,4.1,20.6,10.6,29c9,11.6,22.6,18.7,37.3,19.4c0.6,0,1.2,0.5,1.3,1.1c4.1,18.7,16.9,35.6,35.2,46.5
		c18.9,11.2,41.2,14.6,61.7,9.4c-19.7-18.4-23.4-43.4-22.9-61.4c0-0.4,0.2-0.8,0.5-1.1c0.3-0.3,0.8-0.4,1.2-0.3
		c19.1,3.6,38.8-1.2,54.1-13c12-9.3,20.3-22.1,24.1-36.8c0.1-0.6,0.6-1,1.2-1.1c7.5-1,14.7-4,20.7-8.7c18.9-14.6,22.3-41.9,7.6-60.7
		c-2-2.6-4.3-4.9-6.8-7c-0.5-0.4-0.6-1-0.5-1.6c6.1-18.4,2.7-38.6-9.2-53.9c-13.3-17.1-34.9-25.4-56.3-21.4
		c-0.7,0.1-1.3-0.2-1.6-0.9c-1.3-3.2-3-6.1-5.1-8.8c-6.2-8-15.2-13.1-25.3-14.4s-20,1.5-28,7.7c-5.3,4.1-9.4,9.6-11.9,15.8
		c-0.3,0.7-1,1-1.7,0.9C188.5,96.1,182.1,95.3,175.8,95.3z"/>
</g>
<path class="st5" d="M184.7,216.3l-25.4,6l-0.6-2.5c-1-4.3-1.4-7.9-1-10.8c0.3-2.9,1.2-5.7,2.6-8.4c1.4-2.7,4.8-7.6,10.3-14.8
	c2.9-3.8,4.1-6.9,3.5-9.3s-1.7-4.2-3.5-5.2s-4.1-1.2-7.1-0.5c-3.2,0.8-5.5,2.4-7.1,5s-2,6.5-1.4,11.9l-26.6,2.9
	c-1.4-9.7,0.3-18.2,5-25.4s13.2-12.3,25.7-15.2c9.7-2.3,18-2.1,24.9,0.6c9.4,3.6,15.1,9.9,17.3,19c0.9,3.8,0.7,7.7-0.6,11.7
	s-4.5,9.3-9.8,15.9c-3.7,4.6-5.8,8.1-6.5,10.6C183.8,209.9,183.9,212.9,184.7,216.3z M160,229.2l27.2-6.4l5.6,23.9l-27.2,6.4
	L160,229.2z"/>
<path class="st5" d="M249.2,162.8l-17.6-5.3l0.5-1.8c0.9-3,2-5.3,3.2-7s2.8-3.1,4.6-4.2c1.8-1.1,5.7-2.9,11.5-5.4
	c3.1-1.3,4.9-2.8,5.5-4.5s0.4-3.2-0.3-4.4c-0.7-1.2-2.1-2.2-4.1-2.8c-2.2-0.7-4.2-0.5-6.1,0.5c-1.9,1-3.6,3.3-5.1,6.8L224,127
	c2.6-6.4,6.6-11,12-13.8s12.4-2.8,21.1-0.2c6.7,2,11.7,5.1,15,9.2c4.5,5.5,5.7,11.4,3.8,17.7c-0.8,2.6-2.3,4.9-4.5,6.9
	s-6.1,4.1-11.6,6.2c-3.9,1.5-6.4,2.9-7.7,4.1C251,158.6,250,160.4,249.2,162.8z M229.6,161.9l18.9,5.7l-5,16.6l-18.9-5.7
	L229.6,161.9z"/>
<path class="st1" d="M459,744c196.6,0,356-9.3,356-20.8s-159.4-20.8-356-20.8s-356,9.3-356,20.8S262.4,744,459,744z"/>
<path class="st6" d="M289.4,413.5l-1.7-0.7c1.5-3.6,2.4-6.6,2.7-9.1l1.8,0.2C291.9,406.6,291,409.8,289.4,413.5z M288.7,392.5
	c-3.6-7.8-10.2-12.8-19.1-14.3l0.3-1.8c9.6,1.6,16.7,6.9,20.5,15.3L288.7,392.5z"/>
<path class="st6" d="M279,432l-18.1,8.2l-0.8-1.8c-1.4-3.1-2.2-5.7-2.4-8c-0.2-2.2,0.1-4.5,0.7-6.7c0.7-2.2,2.5-6.4,5.5-12.6
	c1.6-3.3,2-5.8,1.2-7.5s-1.9-2.9-3.4-3.4s-3.2-0.3-5.3,0.7c-2.3,1-3.8,2.6-4.6,4.8c-0.8,2.2-0.6,5.2,0.7,9.1l-19.4,6.1
	c-2.5-7.1-2.5-13.6-0.1-19.7s8.1-11.2,16.9-15.2c6.9-3.1,13.1-4.2,18.7-3.3c7.5,1.3,12.8,5.2,15.8,11.7c1.2,2.7,1.7,5.6,1.3,8.8
	c-0.3,3.2-2,7.6-5,13.3c-2,4-3.1,6.9-3.3,8.9C277.4,427.3,277.9,429.5,279,432z M262.6,445.3l19.4-8.8l7.8,17l-19.4,8.8L262.6,445.3
	z"/>
<path class="st6" d="M234.4,472.8l-9.2,12.5l-1.2-0.9c-2.1-1.6-3.7-3.1-4.6-4.5c-1-1.4-1.7-3.1-2-4.8c-0.4-1.8-0.7-5.3-1-10.7
	c-0.1-2.8-0.8-4.7-2-5.6s-2.4-1.2-3.6-1c-1.2,0.2-2.3,1-3.4,2.5c-1.1,1.6-1.6,3.2-1.3,5s1.6,3.7,3.9,5.9l-11,11.6
	c-4.4-3.9-6.9-8.4-7.5-13.4c-0.7-5.1,1.2-10.7,5.8-16.8c3.5-4.8,7.3-7.9,11.5-9.4c5.6-2,10.7-1.3,15.2,2c1.9,1.4,3.3,3.2,4.2,5.5
	c1,2.3,1.5,6,1.7,11c0.1,3.5,0.5,5.9,1.1,7.3C231.5,470.2,232.6,471.5,234.4,472.8z M228.2,488.1l9.8-13.4l11.8,8.7l-9.8,13.4
	L228.2,488.1z"/>
<path class="st4" d="M429.8,716.6c-3,0-5.9-1.6-7.3-4.4c-7.4-14.2-16.7-31-33.3-49c-1.9-2.1-2.7-5.1-1.9-7.9
	c6.2-21.5,15.9-50.9,16-51.2c1.4-4.3,6.1-6.7,10.4-5.2c4.3,1.4,6.7,6.1,5.2,10.4c-0.1,0.3-8.5,25.6-14.5,46.2
	c15.3,17.4,24.8,33.9,32.7,49.2c2.1,4,0.5,9-3.5,11.1C432.4,716.3,431.1,716.6,429.8,716.6z"/>
<path class="st5" d="M443.5,723.2h-63.9l33.9-19.2l28.4,1.1L443.5,723.2z"/>
<path class="st5" d="M437.4,646c29.1-9.1,46.5-36,39-60c-7.5-24.1-37.2-36.2-66.3-27.2c-29.1,9.1-46.5,36-39,60
	C378.6,642.9,408.3,655,437.4,646z"/>
<path class="st5" d="M278.4,572.3c-3.2,0-6.3-1.9-7.6-5.1c-1.7-4.2,0.3-9,4.5-10.8c4.8-2,5.5-6.9,5.5-6.9c0.3-3.7,3.1-6.7,6.7-7.3
	c2-0.3,3.9-0.9,6.1-1.5c11.2-3.3,25-7.3,68.5,4.9c42.9-24,43.4-69,43.4-70.9c0-4.5,3.7-8.2,8.2-8.2l0,0c4.5,0,8.2,3.6,8.2,8.2
	c0,2.4-0.3,58.9-55.2,87.2c-1.9,1-4,1.2-6.1,0.6c-41.5-12-53.2-8.6-62.6-5.8c-0.8,0.2-1.7,0.5-2.5,0.7c-2,5.2-6.3,11.3-14,14.5
	C280.6,572.1,279.5,572.3,278.4,572.3z"/>
<path class="st4" d="M374.7,513.4c-15.6-62.1-57.2-222.1,76.1-231.9c119.7-8.8,152.5,150.4,160.5,205.5c4.6,32.1,6.2,61.3,6.5,84.1
	c0.3,29.4-20.3,54.7-49.1,60.6c-65.2,13.2-126.9,15.1-168.5-1.3c-11.2-4.4-18-15.9-16.9-27.9C384.9,584.7,384.9,554,374.7,513.4z"/>
<path class="st7" d="M611.3,487.1c-7.5-52-37.1-196.4-140.7-205.4c-12.1-1-24,4.9-29.5,15.6c-4.6,9-4.5,19.8,2.4,30.5
	c22.8,35.4,77.3,157.7,69.1,224.4c-3.7,30.3-22.8,54.5-6.2,88.6c20-1.7,41-4.8,62.3-9.1c28.8-5.8,49.5-31.2,49.1-60.6
	C617.5,548.4,616,519.2,611.3,487.1z"/>
<path class="st5" d="M593.5,572c-0.5,0-0.8-0.4-0.8-0.8c-0.3-28.3-2.5-56.6-6.5-84C566.4,350.2,513,281,431.8,286.9
	c-0.4,0.1-0.8-0.3-0.9-0.8c0-0.5,0.3-0.8,0.8-0.9c82.2-6.1,136.2,63.7,156.2,201.7c4,27.4,6.2,55.8,6.5,84.2
	C594.3,571.6,593.9,572,593.5,572z"/>
<path class="st5" d="M592.2,650.4c29.1-9.1,46.5-36,39-60c-7.5-24.1-37.2-36.2-66.3-27.2c-29.1,9.1-46.5,36-39,60
	C533.5,647.3,563.1,659.4,592.2,650.4z"/>
<path class="st4" d="M597.3,716.6c-3,0-5.9-1.6-7.3-4.4c-7.4-14.2-16.7-31-33.3-49c-1.9-2.1-2.7-5.1-1.9-7.9
	c6.2-21.5,15.9-50.9,16-51.2c1.4-4.3,6.1-6.7,10.4-5.2c4.3,1.4,6.7,6.1,5.2,10.4c-0.1,0.3-8.5,25.6-14.5,46.2
	c15.3,17.4,24.8,33.9,32.7,49.2c2.1,4,0.5,9-3.5,11.1C599.8,716.3,598.5,716.6,597.3,716.6z"/>
<path class="st5" d="M580,465.8c-3,0-5.8-1.6-7.3-4.4c-2.1-4-0.6-9,3.5-11.1c1.6-0.8,37.4-20.4,47.5-67.5
	c-23.9-10-66.9-32.5-76.3-43.9c-0.9-1.1-1.5-2.4-1.8-3.8c-0.2-1.2-1.8-11,1.8-20.2l-4.3-8.4c-2.1-4-0.5-9,3.5-11.1s9-0.5,11.1,3.5
	l6.2,12c1.3,2.6,1.2,5.7-0.3,8.1c-2,3.2-2.2,7.8-2.1,10.8c10.6,9.6,53.3,32.2,74.2,39.9c3.7,1.4,5.9,5.1,5.3,9
	c-9.3,60.1-55.3,84.9-57.3,85.9C582.5,465.4,581.2,465.8,580,465.8z"/>
<path class="st5" d="M553.7,337.8c-0.8,0-1.6-0.2-2.3-0.7c-1.9-1.2-2.4-3.8-1.2-5.7c0.3-0.4,7.1-10.7,17.4-13.5
	c2.2-0.6,4.5,0.7,5,2.9c0.6,2.2-0.7,4.5-2.9,5c-7.2,1.9-12.6,9.9-12.7,10C556.3,337.1,555,337.8,553.7,337.8z"/>
<path class="st5" d="M611,723.2h-63.9L581,704l28.4,1.1L611,723.2z"/>
<path class="st8" d="M477.2,477.4c24.2-2.1,42.2-21.5,40.3-43.2s-23.1-37.6-47.2-35.5c-24.2,2.1-42.2,21.5-40.3,43.2
	C431.9,463.6,453.1,479.5,477.2,477.4z"/>
<path class="st5" d="M469,463c6.4-1.8,8.9-12.8,5.6-24.4S463.4,419,457,420.8s-8.9,12.8-5.6,24.4S462.6,464.9,469,463z"/>
<path class="st5" d="M423.8,445.5c27.7-3.6,82.6-19.2,91.7-25.5c-7.1-20.8-40.3-38.7-70-28.6C418.7,400.4,423.8,445.5,423.8,445.5z"
	/>
<path class="st5" d="M429.1,458.9c34.4-6.5,79.1-17.5,91.9-24.6c-0.8,22.4-7.3,45.2-42.4,52.8C449.9,493.5,429.1,458.9,429.1,458.9z
	"/>
<path class="st8" d="M400.8,480.4c12.4-8.2,14.1-27.7,3.7-43.4c-10.4-15.7-29-21.8-41.4-13.6c-12.4,8.2-14.1,27.7-3.7,43.4
	C369.8,482.6,388.3,488.7,400.8,480.4z"/>
<path class="st5" d="M382.5,452.5c2.1,9.8,0.3,18-4,18.3s-9.5-7.5-11.6-17.3s-0.3-18,4-18.3C375.2,434.9,380.4,442.7,382.5,452.5z"
	/>
<path class="st5" d="M348.4,448.7c18.6,2.2,55.5-0.3,61.7-3.6c-4.5-17.8-26.5-37.9-46.5-35.4C345.5,412.1,348.4,448.7,348.4,448.7z"
	/>
<path class="st5" d="M351.8,460.3c23.1,1,53.2,0.5,61.8-2.8c-0.8,17.6-5.4,34.4-29,34.2C365.4,491.5,351.8,460.3,351.8,460.3z"/>
<path class="st5" d="M484.9,380.2c-34.7,0-57.7-17.1-58.9-18c-3.6-2.8-4.3-7.9-1.6-11.5c2.7-3.6,7.9-4.3,11.5-1.6
	c0.4,0.3,27.8,20.3,65.8,13c4.5-0.8,8.8,2.1,9.6,6.6s-2.1,8.8-6.6,9.6C497.8,379.7,491.2,380.2,484.9,380.2z"/>
<path class="st5" d="M337.6,366.1c-0.9,0-1.9-0.2-2.8-0.5c-4.3-1.5-6.5-6.3-5-10.5c4.4-12.1,11.6-20,21.5-23.4
	c18-6.2,37.3,5.8,38.1,6.3c3.8,2.4,5,7.5,2.6,11.4c-2.4,3.8-7.5,5-11.3,2.6c-3.7-2.3-15.4-7.7-24.1-4.7c-5,1.7-8.7,6.1-11.3,13.4
	C344.1,364,341,366.1,337.6,366.1z"/>
<path class="st5" d="M402.5,504.9c-0.2,0-0.5,0-0.7-0.1c-1.3-0.4-2.1-1.7-1.7-3c0.1-0.2,1.6-5.6,8.4-9c9.5-4.9,23.9-3.9,42.8,3
	c1.3,0.5,1.9,1.9,1.5,3.2c-0.5,1.3-1.9,1.9-3.2,1.5c-21.7-7.9-33-6.2-38.6-3.4c-4.9,2.5-6,6-6.1,6.1
	C404.6,504.2,403.6,504.9,402.5,504.9z"/>
<path class="st0" d="M324.8,495.9c-47.9,4.3-82.2,24.1-82.2,24.1c14.2-2.7,64.9,60.1,78,108.4c24.1-8.9,52.1-15,82-19.7
	C384.4,558.8,351.2,502.3,324.8,495.9z"/>
<path class="st9" d="M324.8,495.9c-47.9,4.3-82.2,24.1-82.2,24.1c14.2-2.7,64.9,60.1,78,108.4c24.1-8.9,52.1-15,82-19.7
	C384.4,558.8,351.2,502.3,324.8,495.9z"/>
<path class="st0" d="M324.8,495.9c-31.4-3.5-82.3,22.7-82.3,22.7c-9,5.7-6.6,16.5-1.7,21.1c4.7-6.8,57.3-24.4,77.1-26.8
	C308.1,503.8,317.3,497.2,324.8,495.9z"/>
<path class="st10" d="M324.8,495.9c-31.4-3.5-82.3,22.7-82.3,22.7c-9,5.7-6.6,16.5-1.7,21.1c4.7-6.8,57.3-24.4,77.1-26.8
	C308.1,503.8,317.3,497.2,324.8,495.9z"/>
<path class="st5" d="M278.5,572.3c-2.7,0-5.3-1.3-6.9-3.7c-6-9.1-2.2-23.1-1.4-25.8c1.3-4.3,5.9-6.8,10.2-5.5
	c4.4,1.3,6.8,5.9,5.5,10.2c-1.3,4.6-1.6,10.5-0.5,12.1c2.5,3.8,1.4,8.9-2.4,11.4C281.6,571.9,280,572.3,278.5,572.3z"/>
<path class="st4" d="M275.2,195.2c0-10.4,1.9-17.7,5.6-21.9c3.8-4.2,9.5-6.3,17.2-6.3c3.7,0,6.7,0.5,9.1,1.4s4.3,2.1,5.8,3.6
	s2.7,3,3.5,4.6c0.9,1.6,1.6,3.5,2.1,5.6c1,4.1,1.5,8.3,1.5,12.8c0,9.9-1.7,17.2-5,21.9c-3.4,4.6-9.2,6.9-17.4,6.9
	c-4.6,0-8.4-0.7-11.2-2.2c-2.8-1.5-5.2-3.6-7-6.5c-1.3-2-2.4-4.8-3.1-8.3S275.2,199.5,275.2,195.2z M290.4,195.3
	c0,7,0.6,11.8,1.9,14.3c1.2,2.6,3,3.8,5.4,3.8c1.5,0,2.9-0.5,4-1.6s2-2.8,2.5-5.1s0.8-6,0.8-11c0-7.3-0.6-12.2-1.9-14.7
	c-1.2-2.5-3.1-3.8-5.6-3.8s-4.4,1.3-5.5,3.8C290.9,183.6,290.4,188.3,290.4,195.3z"/>
<path class="st4" d="M326.4,195.2c0-10.4,1.9-17.7,5.6-21.9c3.8-4.2,9.5-6.3,17.2-6.3c3.7,0,6.7,0.5,9.1,1.4s4.3,2.1,5.8,3.6
	s2.7,3,3.5,4.6c0.9,1.6,1.6,3.5,2.1,5.6c1,4.1,1.5,8.3,1.5,12.8c0,9.9-1.7,17.2-5,21.9c-3.4,4.6-9.2,6.9-17.4,6.9
	c-4.6,0-8.4-0.7-11.2-2.2c-2.8-1.5-5.2-3.6-7-6.5c-1.3-2-2.4-4.8-3.1-8.3S326.4,199.5,326.4,195.2z M341.5,195.3
	c0,7,0.6,11.8,1.9,14.3c1.2,2.6,3,3.8,5.4,3.8c1.5,0,2.9-0.5,4-1.6s2-2.8,2.5-5.1s0.8-6,0.8-11c0-7.3-0.6-12.2-1.9-14.7
	c-1.2-2.5-3.1-3.8-5.6-3.8s-4.4,1.3-5.5,3.8C342.1,183.6,341.5,188.3,341.5,195.3z"/>
<path class="st8" d="M405.6,168H451v11.7h-28.5v8.7H449v11.2h-26.4v10.8h29.3v12.4h-46.3V168z"/>
<path class="st8" d="M461.2,222.9V168h28.3c5.3,0,9.3,0.4,12,1.3c2.8,0.9,5,2.6,6.7,5s2.6,5.4,2.6,8.9c0,3-0.6,5.7-1.9,7.9
	s-3.1,4-5.4,5.4c-1.5,0.9-3.4,1.6-5.9,2.2c2,0.7,3.5,1.4,4.4,2c0.6,0.5,1.5,1.4,2.7,2.9s2,2.6,2.4,3.4l8.2,15.9H496l-9.1-16.8
	c-1.2-2.2-2.2-3.6-3.1-4.2c-1.2-0.8-2.6-1.3-4.1-1.3h-1.5v22.3L461.2,222.9L461.2,222.9z M478.2,190.2h7.2c0.8,0,2.3-0.3,4.5-0.8
	c1.1-0.2,2-0.8,2.8-1.7c0.7-0.9,1.1-2,1.1-3.2c0-1.8-0.6-3.1-1.7-4.1s-3.2-1.4-6.3-1.4h-7.5v11.2H478.2z"/>
<path class="st8" d="M520.9,222.9V168h28.3c5.3,0,9.3,0.4,12,1.3c2.8,0.9,5,2.6,6.7,5s2.6,5.4,2.6,8.9c0,3-0.6,5.7-1.9,7.9
	c-1.3,2.2-3.1,4-5.4,5.4c-1.5,0.9-3.4,1.6-5.9,2.2c2,0.7,3.5,1.4,4.4,2c0.6,0.5,1.5,1.4,2.7,2.9s2,2.6,2.4,3.4l8.2,15.9h-19.2
	l-9.1-16.8c-1.2-2.2-2.2-3.6-3.1-4.2c-1.2-0.8-2.6-1.3-4.1-1.3H538v22.3L520.9,222.9L520.9,222.9z M537.9,190.2h7.2
	c0.8,0,2.3-0.3,4.5-0.8c1.1-0.2,2-0.8,2.8-1.7c0.7-0.9,1.1-2,1.1-3.2c0-1.8-0.6-3.1-1.7-4.1c-1.1-1-3.2-1.4-6.3-1.4H538L537.9,190.2
	L537.9,190.2z"/>
<path class="st8" d="M576.8,195.5c0-9,2.5-15.9,7.5-20.9s12-7.5,20.9-7.5c9.1,0,16.2,2.5,21.1,7.4c4.9,4.9,7.4,11.8,7.4,20.6
	c0,6.4-1.1,11.7-3.2,15.8c-2.2,4.1-5.3,7.3-9.4,9.6c-4.1,2.3-9.2,3.4-15.3,3.4c-6.2,0-11.3-1-15.4-3c-4.1-2-7.3-5.1-9.9-9.4
	C578.1,207.2,576.8,201.9,576.8,195.5z M593.8,195.6c0,5.5,1,9.5,3.1,11.9s4.9,3.6,8.4,3.6c3.7,0,6.5-1.2,8.5-3.6
	c2-2.4,3-6.6,3-12.8c0-5.2-1-8.9-3.1-11.3c-2.1-2.4-4.9-3.6-8.5-3.6c-3.4,0-6.2,1.2-8.2,3.6C594.8,186,593.8,190,593.8,195.6z"/>
<path class="st8" d="M643.1,222.9V168h28.3c5.3,0,9.3,0.4,12,1.3c2.8,0.9,5,2.6,6.7,5s2.6,5.4,2.6,8.9c0,3-0.6,5.7-1.9,7.9
	c-1.3,2.2-3.1,4-5.4,5.4c-1.4,0.9-3.4,1.6-5.9,2.2c2,0.7,3.5,1.4,4.4,2c0.6,0.5,1.5,1.4,2.7,2.9s2,2.6,2.4,3.4l8.2,15.9H678
	l-9.1-16.8c-1.2-2.2-2.2-3.6-3.1-4.2c-1.2-0.8-2.6-1.3-4.2-1.3h-1.5v22.3L643.1,222.9L643.1,222.9z M660.1,190.2h7.2
	c0.8,0,2.3-0.3,4.5-0.8c1.1-0.2,2-0.8,2.8-1.7c0.7-0.9,1.1-2,1.1-3.2c0-1.8-0.6-3.1-1.7-4.1c-1.1-1-3.2-1.4-6.3-1.4h-7.5
	L660.1,190.2L660.1,190.2z"/>
<g class="st11">
	<path class="st4" d="M230.8,167.3h36.9v12.4h-25l-1.3,8.4c1.7-0.8,3.4-1.4,5.1-1.8c1.7-0.4,3.4-0.6,5-0.6c5.6,0,10.1,1.7,13.6,5.1
		c3.5,3.4,5.2,7.6,5.2,12.8c0,3.6-0.9,7.1-2.7,10.4c-1.8,3.3-4.3,5.9-7.6,7.6c-3.3,1.8-7.5,2.6-12.6,2.6c-3.7,0-6.8-0.3-9.5-1
		c-2.6-0.7-4.9-1.7-6.7-3.1c-1.8-1.4-3.3-3-4.5-4.7s-2.1-3.9-2.9-6.6l15.7-1.7c0.4,2.5,1.3,4.4,2.7,5.7c1.4,1.3,3.1,2,5,2
		c2.2,0,3.9-0.8,5.4-2.5c1.4-1.6,2.1-4.1,2.1-7.3c0-3.3-0.7-5.8-2.1-7.3c-1.4-1.6-3.3-2.3-5.7-2.3c-1.5,0-2.9,0.4-4.3,1.1
		c-1,0.5-2.2,1.5-3.4,2.9l-13.2-1.9L230.8,167.3z"/>
</g>
<g class="st11">
	<path class="st8" d="M381.8,131.4l5.4-0.5c0.3,2.1,0.8,3.9,1.8,5.3s2.4,2.5,4.3,3.3s4.2,1.3,6.6,1.3c2.2,0,4.1-0.3,5.7-1
		s2.9-1.5,3.7-2.7s1.2-2.3,1.2-3.7c0-1.3-0.4-2.5-1.2-3.5s-2.1-1.9-3.9-2.5c-1.2-0.4-3.7-1.1-7.6-2.1s-6.7-1.8-8.3-2.7
		c-2.1-1.1-3.6-2.4-4.6-4s-1.5-3.4-1.5-5.3c0-2.2,0.6-4.2,1.8-6.1s3-3.3,5.4-4.3s5-1.5,7.9-1.5c3.2,0,6,0.5,8.4,1.5s4.3,2.5,5.6,4.5
		s2,4.2,2.1,6.8l-5.4,0.4c-0.3-2.7-1.3-4.8-3-6.2s-4.2-2.1-7.5-2.1c-3.4,0-5.9,0.6-7.5,1.9s-2.4,2.8-2.4,4.6c0,1.5,0.6,2.8,1.7,3.8
		c1.1,1,4,2,8.6,3.1s7.8,2,9.5,2.7c2.5,1.2,4.3,2.6,5.5,4.4s1.8,3.8,1.8,6.1c0,2.3-0.7,4.4-2,6.5s-3.2,3.6-5.6,4.7s-5.2,1.7-8.3,1.7
		c-3.9,0-7.1-0.6-9.8-1.7s-4.7-2.8-6.2-5.1S381.9,134.3,381.8,131.4z"/>
	<path class="st8" d="M444.4,135.2l5.4,0.7c-0.9,3.2-2.5,5.7-4.8,7.4s-5.3,2.6-8.9,2.6c-4.6,0-8.2-1.4-10.8-4.2s-4-6.7-4-11.8
		c0-5.2,1.3-9.3,4-12.2s6.2-4.3,10.5-4.3c4.2,0,7.6,1.4,10.2,4.2s4,6.8,4,12c0,0.3,0,0.8,0,1.4h-23.2c0.2,3.4,1.2,6,2.9,7.9
		s3.9,2.7,6.5,2.7c1.9,0,3.6-0.5,5-1.5S443.6,137.4,444.4,135.2z M427.1,126.7h17.4c-0.2-2.6-0.9-4.6-2-5.9c-1.7-2-3.9-3-6.5-3
		c-2.4,0-4.5,0.8-6.1,2.4S427.3,124,427.1,126.7z"/>
	<path class="st8" d="M456.4,145.2v-31.1h4.7v4.7c1.2-2.2,2.3-3.7,3.4-4.4s2.2-1.1,3.4-1.1c1.8,0,3.6,0.6,5.4,1.7l-1.8,4.9
		c-1.3-0.8-2.6-1.1-3.9-1.1c-1.2,0-2.2,0.3-3.1,1s-1.6,1.7-2,2.9c-0.6,1.9-0.9,3.9-0.9,6.2v16.3H456.4z"/>
	<path class="st8" d="M485.1,145.2l-11.8-31.1h5.6l6.7,18.6c0.7,2,1.4,4.1,2,6.3c0.5-1.6,1.1-3.6,2-5.9l6.9-19h5.4L490,145.2H485.1z
		"/>
	<path class="st8" d="M527.8,135.2l5.4,0.7c-0.9,3.2-2.5,5.7-4.8,7.4s-5.3,2.6-8.9,2.6c-4.6,0-8.2-1.4-10.8-4.2s-4-6.7-4-11.8
		c0-5.2,1.3-9.3,4-12.2s6.2-4.3,10.5-4.3c4.2,0,7.6,1.4,10.2,4.2s4,6.8,4,12c0,0.3,0,0.8,0,1.4h-23.2c0.2,3.4,1.2,6,2.9,7.9
		s3.9,2.7,6.5,2.7c1.9,0,3.6-0.5,5-1.5S527,137.4,527.8,135.2z M510.4,126.7h17.4c-0.2-2.6-0.9-4.6-2-5.9c-1.7-2-3.9-3-6.5-3
		c-2.4,0-4.5,0.8-6.1,2.4S510.6,124,510.4,126.7z"/>
	<path class="st8" d="M539.8,145.2v-31.1h4.7v4.7c1.2-2.2,2.3-3.7,3.4-4.4s2.2-1.1,3.4-1.1c1.8,0,3.6,0.6,5.4,1.7l-1.8,4.9
		c-1.3-0.8-2.6-1.1-3.9-1.1c-1.2,0-2.2,0.3-3.1,1s-1.6,1.7-2,2.9c-0.6,1.9-0.9,3.9-0.9,6.2v16.3H539.8z"/>
	<path class="st8" d="M597.8,135.2l5.4,0.7c-0.9,3.2-2.5,5.7-4.8,7.4s-5.3,2.6-8.9,2.6c-4.6,0-8.2-1.4-10.8-4.2s-4-6.7-4-11.8
		c0-5.2,1.3-9.3,4-12.2s6.2-4.3,10.5-4.3c4.2,0,7.6,1.4,10.2,4.2s4,6.8,4,12c0,0.3,0,0.8,0,1.4h-23.2c0.2,3.4,1.2,6,2.9,7.9
		s3.9,2.7,6.5,2.7c1.9,0,3.6-0.5,5-1.5S597,137.4,597.8,135.2z M580.5,126.7h17.4c-0.2-2.6-0.9-4.6-2-5.9c-1.7-2-3.9-3-6.5-3
		c-2.4,0-4.5,0.8-6.1,2.4S580.6,124,580.5,126.7z"/>
	<path class="st8" d="M609.8,145.2v-31.1h4.7v4.7c1.2-2.2,2.3-3.7,3.4-4.4s2.2-1.1,3.4-1.1c1.8,0,3.6,0.6,5.4,1.7l-1.8,4.9
		c-1.3-0.8-2.6-1.1-3.9-1.1c-1.2,0-2.2,0.3-3.1,1s-1.6,1.7-2,2.9c-0.6,1.9-0.9,3.9-0.9,6.2v16.3H609.8z"/>
	<path class="st8" d="M629.8,145.2v-31.1h4.7v4.7c1.2-2.2,2.3-3.7,3.4-4.4s2.2-1.1,3.4-1.1c1.8,0,3.6,0.6,5.4,1.7l-1.8,4.9
		c-1.3-0.8-2.6-1.1-3.9-1.1c-1.2,0-2.2,0.3-3.1,1s-1.6,1.7-2,2.9c-0.6,1.9-0.9,3.9-0.9,6.2v16.3H629.8z"/>
	<path class="st8" d="M647.8,129.7c0-5.8,1.6-10,4.8-12.8c2.7-2.3,5.9-3.5,9.8-3.5c4.3,0,7.8,1.4,10.5,4.2s4.1,6.7,4.1,11.6
		c0,4-0.6,7.2-1.8,9.4s-2.9,4.1-5.2,5.3s-4.8,1.9-7.5,1.9c-4.4,0-7.9-1.4-10.6-4.2S647.8,134.9,647.8,129.7z M653.3,129.7
		c0,4,0.9,7,2.6,9s3.9,3,6.6,3c2.6,0,4.8-1,6.5-3s2.6-5,2.6-9.1c0-3.8-0.9-6.8-2.6-8.7s-3.9-3-6.5-3c-2.6,0-4.8,1-6.6,3
		S653.3,125.7,653.3,129.7z"/>
	<path class="st8" d="M683.1,145.2v-31.1h4.7v4.7c1.2-2.2,2.3-3.7,3.4-4.4s2.2-1.1,3.4-1.1c1.8,0,3.6,0.6,5.4,1.7l-1.8,4.9
		c-1.3-0.8-2.6-1.1-3.9-1.1c-1.2,0-2.2,0.3-3.1,1s-1.6,1.7-2,2.9c-0.6,1.9-0.9,3.9-0.9,6.2v16.3H683.1z"/>
</g>
</svg>
